PathFileType	4	(X/Y/Z)	56_2_76_p1_0-141.trc
DataRate	CameraRate	NumFrames	NumMarkers	Units	OrigDataRate	OrigDataStartFrame	OrigNumFrames
51.0	51.0	6	27	m	51.0	35	142
Frame#	Time	RHip			RKnee			RAnkle			RBigToe			RSmallToe			RHeel			LHip			LKnee			LAnkle			LBigToe			LSmallToe			LHeel			Neck			Head			Nose			RShoulder			RElbow			RWrist			RThumb			RIndex			RPinky			LShoulder			LElbow			LWrist			LThumb			LIndex			LPinky			
		X1	Y1	Z1	X2	Y2	Z2	X3	Y3	Z3	X4	Y4	Z4	X5	Y5	Z5	X6	Y6	Z6	X7	Y7	Z7	X8	Y8	Z8	X9	Y9	Z9	X10	Y10	Z10	X11	Y11	Z11	X12	Y12	Z12	X13	Y13	Z13	X14	Y14	Z14	X15	Y15	Z15	X16	Y16	Z16	X17	Y17	Z17	X18	Y18	Z18	X19	Y19	Z19	X20	Y20	Z20	X21	Y21	Z21	X22	Y22	Z22	X23	Y23	Z23	X24	Y24	Z24	X25	Y25	Z25	X26	Y26	Z26	X27	Y27	Z27	
35	0.6862745098039216	0.46692345502826943	0.6943110132056977	0.3050769784920021	0.4349460626700027	0.7696246043353022	0.7175152840624097	0.49401358716784155	0.9968874362894572	1.0623585776099662	0.4185280536146824	0.8712271838987478	1.152751277592645	0.4917724296511502	0.8602384876266038	1.148523734418523	0.5062385911712244	1.1241211660021124	1.1025670545333965	0.2693980978186604	0.7090181547685586	0.30500367468846845	0.2715651645122602	0.8513779087176718	0.6832745083716809	0.3086364149706764	1.0924109675460962	1.031871577798552	0.2443227216042282	0.9266067705317759	1.1247264007483544	0.21904016260097817	1.0025803444411607	1.112159648064709	0.34684261363705776	1.1510090275073408	1.0739376081873135	0.35458330217920647	0.5427071490286975	-0.1881101733205415	0.3537098973481605	0.40586780777713605	-0.4037120720711988	0.34782053456447465	0.3875011100582731	-0.24415731832960766	0.48513003561836704	0.5893360510637491	-0.16187963406218628	0.5960428401510084	0.8179359430877964	-0.00720778592628812	0.7218938556071383	0.7308407216357451	-0.09912446532715595	0.7711332434652262	0.7699174526884079	-0.15604052501024082	0.7809883816021357	0.7275808336867173	-0.13657421342448117	0.7794686299220656	0.6578207865322175	-0.0905520559263842	0.17992564529436833	0.5571485866021408	-0.152929099726778	0.04135545346294441	0.5567147144575261	0.054774280583087524	0.130410797703009	0.33399564542278637	0.17129157384793572	0.21823874560255105	0.31396832191799195	0.1957568697072413	0.21308106003828817	0.2856900217120022	0.21233680698884988	0.15063961946367463	0.27666519963701014	0.2513558894066014
36	0.7058823529411765	0.4751971722103283	0.7066553791503113	0.3053197628103663	0.43408581578411537	0.7491417005700512	0.7151189303693082	0.500401557915005	0.9991192168579033	1.0635942023937959	0.41832577203552895	0.8702274400347102	1.1561703487963606	0.4917541102652081	0.8600845285971442	1.1486582853463216	0.5125719036517303	1.1268547565540663	1.1037886273897466	0.268986980909522	0.7104728583496208	0.31253916140902016	0.26232221923046045	0.8205618830639307	0.6876875605621324	0.30401691465374037	1.0919598490710536	1.0312838058688465	0.23695638371663755	0.8962026923123683	1.1168492768047524	0.2143797433343052	1.0015272180196981	1.1154609060159213	0.3480747699517148	1.1723435848819515	1.0769775827771046	0.354633381923097	0.5299018603976404	-0.1819374882425258	0.35354047220559925	0.40721738871170243	-0.3966023593170236	0.34199413395461203	0.3929434185845709	-0.23856439060195445	0.4749597692501261	0.6011247041597272	-0.14312675827612797	0.5944134328360727	0.8107837089038971	-0.012418410698484216	0.7199520662375273	0.7644260965434063	-0.10888426310792237	0.7281309447759138	0.7582861429254232	-0.1816473004127812	0.7543173553009584	0.7540562014879983	-0.15023951123792753	0.7738620027313904	0.7290931908483707	-0.12332016026586826	0.1864878753034289	0.5538302937847485	-0.15232818491643535	0.04247533837405361	0.5424611253074476	0.056060145543287525	0.1305290829427856	0.33369032795753645	0.17110813922715618	0.21131805178645247	0.29355271765271485	0.19684578952735446	0.20565348382466433	0.2489996448248266	0.20651297219835252	0.1469735659393406	0.26496794511801486	0.25136247439184095
37	0.7254901960784313	0.4767123267343916	0.7229262520902127	0.30510148804224063	0.434076842382749	0.7488312273989997	0.715176243240419	0.5001484891097958	0.9980333173567812	1.0675919967416583	0.41832888928606504	0.8701260179663612	1.1561087131845047	0.4838381424492891	0.8477578483244551	1.1449673660391808	0.5121549929645388	1.1256207828287048	1.1035415046206498	0.2692056479717656	0.7263467404219737	0.31244567394507766	0.2546023841629841	0.7906100626254869	0.684280716545696	0.30856612654631266	1.092444435591877	1.0316729081793354	0.24391461476495338	0.9089884846730084	1.1206798084073581	0.21468706363073436	0.9848927645321341	1.1079638528258862	0.34799224065238826	1.1722546215513059	1.0773445645866377	0.3546177392684593	0.5306299865512097	-0.17799505116601574	0.3537504418483528	0.40915176850354834	-0.39297313752393465	0.34096887217385957	0.37986429696783636	-0.23547734295883319	0.47760374357728885	0.6189381037818681	-0.1412545414232525	0.5822737698772383	0.7704299783360691	-0.008113584918639881	0.7083182588464926	0.7411197835820985	-0.11618601168266837	0.698298157693794	0.7114707511350967	-0.17990914843523564	0.7358482295396409	0.7485656095828073	-0.17473447278872511	0.7667944230594406	0.7508616432313165	-0.13105699302199317	0.18031996820603988	0.5296564624280716	-0.14805463538860783	0.049588273030211724	0.539866189031887	0.05647246769000998	0.1306446244509418	0.3337128042116761	0.1710924094189929	0.21094530305845463	0.2929568555941626	0.19652854355963215	0.19961940710246662	0.22861421153251155	0.20715880279631008	0.15083467642445555	0.26526686691506635	0.2514174351462388
38	0.7450980392156863	0.47623578204790823	0.7242149126630373	0.3085973292111041	0.4341847185930131	0.7493285109702374	0.7114951458204922	0.49984734700929434	0.997942816603713	1.0676187761852591	0.4100607126891711	0.8573608511811512	1.1520217937921948	0.4837589998123735	0.8476959069322763	1.1448246965668194	0.5119729869672968	1.125190511462564	1.1072815109545733	0.269183651398915	0.7265216587418633	0.31238902294950854	0.2452125859125129	0.777108440980963	0.6822035294584428	0.3040240444480131	1.0911382558372056	1.0351553313436772	0.2438033293010902	0.9084343215905961	1.1204900410778518	0.21464488422703876	0.984453850287466	1.107846703344198	0.34729173197181107	1.175412313799723	1.0832778072863192	0.3550222864271797	0.5458038608056528	-0.1772906448281581	0.35372323375644965	0.40921641065779074	-0.3927852223447688	0.3449275332339732	0.37906097172812003	-0.23511769704416102	0.4758802397085078	0.6039519524660357	-0.13867406738399124	0.5938873095486396	0.8494688548070426	-0.016808723348627614	0.6875241450347234	0.7324275182232097	-0.11342884845176839	0.6837674103843826	0.6969974357822198	-0.1835747454072144	0.7190855031454043	0.7378720253273224	-0.18371731669026706	0.7466833191553939	0.7605386962812791	-0.1446840832370007	0.1799863177555713	0.530702800216256	-0.14494690377411248	0.049374606926861936	0.541462171619341	0.06307089284186239	0.13104331702346805	0.32189847099372737	0.17194589764368623	0.21206404043819538	0.2951879890632045	0.1999314869157561	0.21009150366320725	0.23853877309630478	0.21018663764999815	0.15103956697823664	0.26400220407240693	0.24833404742023948
39	0.7647058823529411	0.47487989937415376	0.7082143113785679	0.3130320539087141	0.43799098767646716	0.7507368705806637	0.7196223303392517	0.4996317785289497	0.9977597037628262	1.0675661222334984	0.41006757002489214	0.8571081620018648	1.1519930748894236	0.4837791264087887	0.8476602072712474	1.1448067653569758	0.5120726103709022	1.1254476216271254	1.10732264268159	0.26920215079262877	0.7265066143973575	0.3163493419992713	0.24633208847056373	0.779155353708091	0.6868874571580449	0.3041489877531112	1.0912214962841085	1.0352937266162119	0.2443226445289156	0.9049778171719993	1.1164327205906355	0.21441842822803978	0.9830952127608782	1.1116441860395088	0.3557088480717166	1.1902001643662183	1.0920648187456394	0.3541001989319942	0.531338837000194	-0.17451355903386362	0.3535876603747128	0.40918650488175135	-0.39259976530975166	0.3443324125362511	0.3664137858010421	-0.23240081158173678	0.47680323045505557	0.6061557079257301	-0.13498043872448987	0.5939538847114929	0.8493899473026785	-0.017232421988995567	0.6909408441430863	0.7544060476724828	-0.11730489596635917	0.6802941035052871	0.7135435940489543	-0.200622641076695	0.7092147007467212	0.7619394067515513	-0.2042624005667593	0.7577950384654437	0.8678722746784586	-0.15347631037568754	0.17992030630543152	0.530912509992354	-0.14108202333155562	0.05329529874443977	0.5421595467937974	0.0634788017060082	0.13509190938527932	0.32242379823579376	0.17208783329875807	0.2121544925028998	0.29548501126796994	0.2000530025948545	0.21049643331381426	0.2510118129177713	0.20977776606156542	0.1547545535931378	0.2644586275300824	0.24834427613424304
40	0.7843137254901961	0.47452298831210016	0.7099226116682505	0.32090933542655253	0.43761179104927755	0.7524906577754145	0.7235010257858582	0.4909641502355317	0.9845681571739703	1.0639423676959059	0.4146691746965122	0.8581333562328302	1.1528798066546573	0.4839145954286973	0.8479224263749184	1.1448046696907934	0.5113461587656719	1.1259070670095752	1.1034611033065114	0.26866422135943446	0.7277732794202015	0.31992192194884755	0.24722793638127963	0.7646950598102942	0.6935285308286107	0.30188491340726714	1.0909962352901215	1.0346000119047225	0.23623751650322244	0.8768856911215411	1.1126230219722584	0.21363181911978418	0.9855143350089981	1.1157817662082357	0.35563203626509926	1.190400676198967	1.0925580124295313	0.35411305390129516	0.5315432435856801	-0.17415722302842376	0.35360808071151456	0.410133048086183	-0.3894181940401235	0.35099384903894726	0.37574545465878406	-0.234351162410178	0.47537073357080945	0.5922517219546598	-0.12515821190630175	0.5818429757782295	0.8095965251407018	-0.012975432278278895	0.6905193106582466	0.7875743834256749	-0.13428141994477336	0.6681674343726793	0.713315627722505	-0.20112365829456255	0.6938065046433255	0.7178920229936818	-0.20183771943449033	0.7554696495539122	0.8935669034128408	-0.18743321676882682	0.18069769330807717	0.518875824608887	-0.13491211250477336	0.05307475133064499	0.5426762815410042	0.06402403500847484	0.13500630325811902	0.32218899967575076	0.17543531273787263	0.21230184668063445	0.2957906707581573	0.20027121628484212	0.21077830632802555	0.23953270274376223	0.21103956730198373	0.1586578265664857	0.26483815388391885	0.2486119860103249
